{
	"asset":{
		"generator":"Khronos glTF Blender I/O v4.0.44",
		"version":"2.0"
	},
	"scene":0,
	"scenes":[
		{
			"name":"Scene",
			"nodes":[
				0
			]
		}
	],
	"nodes":[
		{
			"mesh":0,
			"name":"0RetopoMain.001"
		}
	],
	"materials":[
		{
			"doubleSided":true,
			"emissiveTexture":{
				"index":0
			},
			"name":"Material.012",
			"normalTexture":{
				"index":1
			},
			"pbrMetallicRoughness":{
				"baseColorTexture":{
					"index":2
				},
				"metallicFactor":0.16363635659217834,
				"metallicRoughnessTexture":{
					"index":3
				}
			}
		},
		{
			"doubleSided":true,
			"emissiveTexture":{
				"index":4
			},
			"name":"Material.011",
			"normalTexture":{
				"index":5
			},
			"pbrMetallicRoughness":{
				"baseColorTexture":{
					"index":6
				},
				"metallicRoughnessTexture":{
					"index":7
				}
			}
		}
	],
	"meshes":[
		{
			"name":"RetopoMain.001",
			"primitives":[
				{
					"attributes":{
						"POSITION":0,
						"NORMAL":1,
						"TEXCOORD_0":2
					},
					"indices":3,
					"material":0
				},
				{
					"attributes":{
						"POSITION":4,
						"NORMAL":5,
						"TEXCOORD_0":6
					},
					"indices":7,
					"material":1
				}
			]
		}
	],
	"textures":[
		{
			"sampler":0,
			"source":0
		},
		{
			"sampler":0,
			"source":1
		},
		{
			"sampler":0,
			"source":2
		},
		{
			"sampler":0,
			"source":3
		},
		{
			"sampler":0,
			"source":4
		},
		{
			"sampler":0,
			"source":5
		},
		{
			"sampler":0,
			"source":6
		},
		{
			"sampler":0,
			"source":7
		}
	],
	"images":[
		{
			"mimeType":"image/png",
			"name":"Material.012_Emission",
			"uri":"Material_012_Emission.png"
		},
		{
			"mimeType":"image/png",
			"name":"Material.012_Normal",
			"uri":"Material_012_Normal.png"
		},
		{
			"mimeType":"image/png",
			"name":"Material.012_BaseColor",
			"uri":"Material_012_BaseColor.png"
		},
		{
			"mimeType":"image/png",
			"name":"Material.012_Roughness",
			"uri":"Material_012_Roughness.png"
		},
		{
			"mimeType":"image/png",
			"name":"Material.011_Emission",
			"uri":"Material_011_Emission.png"
		},
		{
			"mimeType":"image/png",
			"name":"Material.011_Normal",
			"uri":"Material_011_Normal.png"
		},
		{
			"mimeType":"image/png",
			"name":"Material.011_BaseColor",
			"uri":"Material_011_BaseColor.png"
		},
		{
			"mimeType":"image/png",
			"name":"Material.011_Roughness",
			"uri":"Material_011_Roughness.png"
		}
	],
	"accessors":[
		{
			"bufferView":0,
			"componentType":5126,
			"count":13906,
			"max":[
				0.6472189426422119,
				0.6910650134086609,
				0.39842161536216736
			],
			"min":[
				-0.644396185874939,
				-0.771598219871521,
				-0.24336352944374084
			],
			"type":"VEC3"
		},
		{
			"bufferView":1,
			"componentType":5126,
			"count":13906,
			"type":"VEC3"
		},
		{
			"bufferView":2,
			"componentType":5126,
			"count":13906,
			"type":"VEC2"
		},
		{
			"bufferView":3,
			"componentType":5123,
			"count":79980,
			"type":"SCALAR"
		},
		{
			"bufferView":4,
			"componentType":5126,
			"count":504,
			"max":[
				0.15644237399101257,
				0.5304833054542542,
				0.38149043917655945
			],
			"min":[
				0.09103535860776901,
				-0.354430615901947,
				0.16855886578559875
			],
			"type":"VEC3"
		},
		{
			"bufferView":5,
			"componentType":5126,
			"count":504,
			"type":"VEC3"
		},
		{
			"bufferView":6,
			"componentType":5126,
			"count":504,
			"type":"VEC2"
		},
		{
			"bufferView":7,
			"componentType":5123,
			"count":1920,
			"type":"SCALAR"
		}
	],
	"bufferViews":[
		{
			"buffer":0,
			"byteLength":166872,
			"byteOffset":0,
			"target":34962
		},
		{
			"buffer":0,
			"byteLength":166872,
			"byteOffset":166872,
			"target":34962
		},
		{
			"buffer":0,
			"byteLength":111248,
			"byteOffset":333744,
			"target":34962
		},
		{
			"buffer":0,
			"byteLength":159960,
			"byteOffset":444992,
			"target":34963
		},
		{
			"buffer":0,
			"byteLength":6048,
			"byteOffset":604952,
			"target":34962
		},
		{
			"buffer":0,
			"byteLength":6048,
			"byteOffset":611000,
			"target":34962
		},
		{
			"buffer":0,
			"byteLength":4032,
			"byteOffset":617048,
			"target":34962
		},
		{
			"buffer":0,
			"byteLength":3840,
			"byteOffset":621080,
			"target":34963
		}
	],
	"samplers":[
		{
			"magFilter":9729,
			"minFilter":9987
		}
	],
	"buffers":[
		{
			"byteLength":624920,
			"uri":"%D0%B6%D0%B0%D0%BA%D0%B5%D1%82%20%D0%BC%D0%BE%D0%B4%D0%B5%D0%BB%D1%8C%D0%BA%D0%B0.bin"
		}
	]
}
